<svg xmlns="http://www.w3.org/2000/svg" viewBox="0 0 512 512">
  <rect width="512" height="512" rx="128" fill="#0f172a"/>
  <circle cx="256" cy="256" r="180" fill="url(#grad)" />
  <defs>
    <linearGradient id="grad" x1="0%" y1="0%" x2="100%" y2="100%">
      <stop offset="0%" stop-color="#f97316"/>
      <stop offset="50%" stop-color="#fb923c"/>
      <stop offset="100%" stop-color="#f59e0b"/>
    </linearGradient>
  </defs>
  <path d="M256 120 C230 180 180 220 180 280 C180 340 215 380 256 380 C297 380 332 340 332 280 C332 220 282 180 256 120 Z" fill="#ffffff" opacity="0.95"/>
  <path d="M256 240 C242 270 220 290 220 320 C220 350 236 370 256 370 C276 370 292 350 292 320 C292 290 270 270 256 240 Z" fill="#0f172a"/>
</svg>
